<svg xmlns="http://www.w3.org/2000/svg" viewBox="0 0 1024 1024">
  <title>auto_moto</title>
  <g id="7ff2c9dc-0a8a-4390-acb6-ec118b376142" data-name="Layer 4">
    <g>
      <path d="M728.94,817.16518h-3.0179l-21.94411-3.657c-7.68062-1.18178-15.79837-2.38411-23.65062-3.54711-7.88265-1.16836-16.03348-2.376-23.765-3.565l-.09654-.01519c-45.08163-7.51435-81.553-10.49649-114.74445-9.3916l-.25924.00447H496.37237c-22.6083,0-45.98538,0-69.47331,1.16926-18.85649,1.64572-37.93736,4.46874-56.39158,7.19879-7.79505,1.15317-15.8538,2.34566-23.66314,3.41123l-43.23745,7.20594h-.64452c-.1332.00715-.44786.03486-.83583.06526-5.08286.39422-20.47628,1.59208-27.1423-9.68123-6.36476-9.77509-4.86117-23.11695-1.69131-29.79369,2.29293-5.74705,4.35522-11.34393,6.35046-16.75844,2.03458-5.52358,4.138-11.23219,6.51494-17.18575,1.84775-5.51284,3.98244-10.69494,6.04741-15.70987,2.08285-5.05873,4.05039-9.83677,5.74527-14.92142,1.70025-5.10343,1.24345-6.76882,1.18624-6.94224l-.16269-.48719-.09655-.50417c-17.462-90.80152-22.93369-174.14946-16.72894-254.8058,1.68326-20.19828,4.53936-40.36437,7.30159-59.86583,1.15764-8.17943,2.35639-16.63732,3.41927-24.79038l.04023-.2731c2.29113-13.74144,4.65914-27.94906,5.82751-42.92234-.0009-1.92507-.02235-5.74035-.42641-7.02224l-.23063-.53546c-4.17464-10.73472-8.10613-21.31926-11.908-31.55517-3.742-10.07456-7.61-20.48791-11.69346-30.99781l-2.59238-5.18612-.20739-.82822c-.11621-.46618-.29411-1.0298-.49077-1.67343-1.69846-5.545-6.86715-22.41834,8.78373-31.80815,8.562-5.1365,20.6944-4.762,28.25434-1.73958l21.414,8.52851c19.43039,7.5805,37.78718,14.74219,56.60166,15.83323l2.857.03173c12.46223,1.13261,26.83032,2.3412,39.63939,2.3412l154.44821.00223a288.80307,288.80307,0,0,0,131.74962-27.73408l.43266-.18862c8.50392-3.40184,24.187-3.236,31.51449,5.9245l.1484.1922c5.11683,6.822,5.11683,14.80968,5.11683,20.09547v3.55962a19.32716,19.32716,0,0,1-1.18624,6.87653v.07643l-5.19908,19.39687c-3.76343,10.53717-7.98008,21.02963-12.05728,31.1766-2.43863,6.06842-4.74318,11.80385-6.92168,17.46286a24.24423,24.24423,0,0,0-.73927,7.20415c20.22777,89.69662,25.00223,183.29836,14.1884,278.21729-2.38678,22.67893-6.02238,45.702-9.5382,67.96705l-.0295.17878c-1.239,6.809-2.14274,13.6011-3.10014,20.79095-.80453,6.04563-1.63588,12.28971-2.70681,18.79571a21.14321,21.14321,0,0,0,.75716,6.30755c4.61624,12.69286,9.37282,25.763,15.15564,38.48533l.20292.48719c1.40525,3.74913,3.01074,7.51167,4.7101,11.4959,2.4869,5.83109,5.05873,11.85973,7.25153,18.44082,3.29144,9.87342,2.6353,19.08444-1.89691,26.63812l-.49255.82063-.67671.6767C745.60275,814.40742,737.38756,817.16518,728.94,817.16518Zm-1.72885-15.56863H728.94a19.89215,19.89215,0,0,0,9.3317-2.07033c1.94429-4.23632,1.05484-9.12163-.10459-12.6008-1.99256-5.97858-4.43834-11.71133-6.80278-17.25547-1.65645-3.88411-3.36832-7.89784-4.87369-11.88833-6.00093-13.2328-10.84333-26.54784-15.52751-39.42753l-.0885-.2512a36.81187,36.81187,0,0,1-1.58493-11.95269v-.64452l.10548-.63559c1.08166-6.48544,1.92373-12.81444,2.739-18.93426.97795-7.349,1.90227-14.29121,3.19757-21.43368,3.481-22.04245,7.07722-44.83043,9.42646-67.14553,10.6565-93.545,5.91333-185.68693-14.09007-273.93359l-.1922-.84968v-.87113c0-3.92926,0-8.38325,1.58672-13.14162l.11889-.33165c2.242-5.82751,4.59121-11.67468,7.079-17.86513,3.98244-9.91007,8.09808-20.154,11.73368-30.3068l4.50361-16.89164a13.05721,13.05721,0,0,1,.73123-2.68446,4.23475,4.23475,0,0,0,.35131-1.83836v-3.55962c0-3.91718,0-7.96578-1.91747-10.63862-1.84775-2.1119-9.14308-2.76089-13.32577-1.19026a304.29008,304.29008,0,0,1-138.43976,29.10581H428.73876c-13.33739,0-27.97544-1.21887-40.69691-2.37293l-2.452-.01207c-21.36843-1.18714-40.91414-8.81233-61.60765-16.88583l-3.66957-1.42984-17.86781-7.14739c-3.79651-1.517-10.78791-1.56929-14.46284.63424-4.03966,2.42388-4.46785,5.54145-1.90764,13.89878.16448.53725.3236,1.05617.46663,1.55722l2.31795,4.71144c4.17464,10.73472,8.10613,21.31926,11.908,31.55517,3.75092,10.09869,7.62877,20.53931,11.72385,31.07513,1.67522,3.66242,1.81557,8.40649,1.81557,13.75843l-.02325.59669c-1.20858,15.71971-3.63828,30.32513-5.99288,44.45007-1.07,8.19507-2.267,16.64715-3.42553,24.82256-2.73094,19.28379-5.55486,39.22417-7.197,58.92676-6.08318,79.07989-.71336,160.94661,16.41786,250.20252,1.68773,5.7703.0438,11.98845-1.365,16.21583-1.86384,5.5942-4.02714,10.84691-6.11893,15.9262-2.08374,5.06052-4.05128,9.83945-5.74705,14.925l-.15734.43c-2.33136,5.8293-4.42315,11.50573-6.44521,16.99534-2.06139,5.59419-4.19251,11.37969-6.607,17.41548l-.2646.5891c-1.37933,2.75955-2.16152,10.45269.70084,14.74622l.28158.455c.77325,1.35341,3.58018,2.82124,12.5561,2.12308.46842-.03665.87873-.06794,1.25954-.0885l42.44812-7.071c7.75749-1.05841,15.81267-2.25,23.60235-3.40228,18.72776-2.77028,38.0929-5.63532,57.46251-7.31948l.28516-.01966c23.926-1.19608,47.54975-1.19608,70.39584-1.19608h44.96c34.21148-1.12366,71.60265,1.91926,117.64435,9.59005,7.67436,1.18088,15.78675,2.38231,23.63185,3.54442,7.8889,1.16926,16.046,2.37784,23.78292,3.56766Z" fill="#737373"/>
      <g>
        <path d="M451.28313,563.76189c2.37313-28.47759,13.05223-49.8358,34.41042-64.07458,20.17163-13.05224,37.97013-11.86567,56.9552,1.18657,20.17163,14.2388,30.85073,34.41042,32.0373,59.32832a53.74241,53.74241,0,0,1-3.55969,18.98506c-5.93283,15.42538-16.61193,23.73131-35.597,20.17162-4.74626-1.18655-10.6791-2.37315-15.42536-3.55969-10.67909-2.37315-20.17163,1.18654-29.66416,2.37314-2.37314,0-4.74626,1.18655-7.1194,1.18655-13.05223,1.18654-23.73133-8.306-28.47759-20.17164A36.5371,36.5371,0,0,1,451.28313,563.76189Z" fill="#f80"/>
        <path d="M607.9099,484.262c-1.18657,15.42536-4.74626,26.10447-16.61193,34.41042-9.49252,7.11941-18.98506,3.55969-23.73133-7.1194-5.93283-14.23881,2.37315-36.78356,15.42536-43.903,8.306-4.74627,17.79849-2.37315,21.35818,7.1194C606.72333,478.32912,606.72333,481.88881,607.9099,484.262Z" fill="#f80"/>
        <path d="M459.58909,500.87388c-1.18657,3.55969-1.18657,8.306-3.5597,11.86566-3.5597,9.49252-13.05224,11.86566-21.3582,5.93283s-13.05223-14.2388-15.42536-24.9179c-1.18657-7.1194-1.18657-14.2388,1.18657-20.17163,3.5597-9.49252,13.05223-11.86567,21.35819-7.11941,9.49254,5.93284,14.2388,15.42536,16.61193,26.10447,0,3.55972,0,5.93284,1.18657,8.306Z" fill="#f80"/>
        <path d="M562.82036,446.29182c-1.18657,14.23881-4.74626,24.9179-14.2388,33.22385-9.49253,7.1194-18.98507,4.74626-23.73133-5.93283-5.93283-14.23881-1.18657-35.597,10.67909-43.903,8.306-7.1194,18.98507-4.74626,23.73133,5.93283C561.63379,439.17242,561.63379,443.9187,562.82036,446.29182Z" fill="#f80"/>
        <path d="M463.14879,445.10525c0-2.37314,1.18657-7.1194,2.37314-10.67909,4.74626-10.6791,15.42536-13.05224,24.9179-5.93284,10.67909,9.49253,15.42535,28.47759,10.67909,41.52983-4.74626,14.2388-16.61192,17.79849-26.10447,7.1194C466.70848,468.83658,463.14879,459.34405,463.14879,445.10525Z" fill="#f80"/>
      </g>
    </g>
  </g>
</svg>
