<svg xmlns="http://www.w3.org/2000/svg" viewBox="0 0 1024 1024">
  <title>puericultura</title>
  <g id="03193672-72fc-48db-8b3d-e8449ebc61eb" data-name="Layer 4">
    <g>
      <path d="M280.41484,492.02471a35.774,35.774,0,1,0,0,71.548c19.5131,0,36.85808-16.26091,36.85808-35.774C315.10479,508.28562,299.92794,492.02471,280.41484,492.02471Z" fill="#737373"/>
      <path d="M859.30344,411.80419h-72.6321c-3.25217-26.01747-24.93339-46.61463-52.03492-46.61463A51.05763,51.05763,0,0,0,690.18993,391.207h-3.25217c-2.16813,0-3.25218,0-4.33626-2.16812-9.75657-16.26092-19.5131-30.35371-29.26966-45.53056-11.92466-18.429-29.26966-28.18559-48.78275-29.26965a30.01291,30.01291,0,0,1-9.75657-1.08407c-4.33626,0-7.58843-1.08406-11.92465-1.08406-96.48144-4.33624-183.20632-4.33624-263.42684,1.08406-24.9334,1.08407-43.36244,13.00874-56.37117,33.6059a141.24077,141.24077,0,0,1-10.84061,16.26091,190.91354,190.91354,0,0,0-15.17686,24.93341c-2.16811,3.25218-3.25217,4.33625-7.58842,3.25218H179.59716C165.50437,391.207,159,398.79546,159,412.88826v14.09279c0,17.345,5.42031,23.84934,21.68122,27.10153l16.26092,3.25218h1.08406a38.51655,38.51655,0,0,0-2.16812,10.84061c-3.25219,13.00875-5.42031,24.9334-7.58843,37.94214-6.50437,44.44651-5.42031,91.06113-5.42031,134.42357v49.8668c0,15.17687,7.58843,24.93339,21.68122,27.10152a131.21113,131.21113,0,0,0,41.19433,0c22.76528-3.25217,22.76528-22.76526,22.76528-29.26965V661.13822H616.47374a69.80828,69.80828,0,0,0,68.29584,55.2871h13.00875v41.19431a31.46038,31.46038,0,0,0,31.43778,31.43779h13.00874a31.46039,31.46039,0,0,0,31.43779-31.43779V716.42536H780.167c37.94214,0,69.37993-31.43779,69.37993-69.37991V550.564c0-37.94214-31.43779-69.3799-69.37993-69.3799h-55.2871c-1.084-4.33624-2.16813-9.75655-3.25217-14.0928,4.33626,1.08407,8.67248,2.16812,13.00874,2.16812a51.47126,51.47126,0,0,0,50.95088-44.44651H858.2194a6.99469,6.99469,0,0,0,6.50435-6.50437C865.80779,415.05638,863.6397,411.80419,859.30344,411.80419ZM616.47379,613.43956v34.69H264.15392a6.99473,6.99473,0,0,0-6.50437,6.50435v34.69c0,11.92466-4.33624,15.17687-11.92467,16.26092a221.63872,221.63872,0,0,1-37.94214,0c-6.50436-1.084-10.84061-3.25218-10.84061-13.00874V642.70919c0-43.36244-1.08406-88.893,5.42031-132.25544,2.16812-11.92467,4.33624-23.84935,7.58842-36.85807,1.08406-5.42031,3.25219-11.92468,4.33625-18.429a9.77291,9.77291,0,0,0-1.08406-5.4203,14.965,14.965,0,0,0-4.33625-3.25219l-7.58842-1.08406-16.26091-3.25219c-9.75655-2.16812-10.84061-3.25218-10.84061-14.09279v-14.0928c0-6.50437,1.08406-8.67249,7.58842-8.67249H230.548c8.67249,0,14.09279-3.25219,19.5131-9.75655,5.4203-8.67249,9.75654-16.26091,15.17685-23.84934,3.25218-5.4203,7.58842-10.84061,10.84061-16.26091,10.84061-17.345,26.01747-26.01747,46.61463-27.10153,80.22051-5.42031,165.86136-5.42031,261.25872-1.08406,3.25218,0,7.58844,0,10.84061,1.08406,3.25218,0,6.50435,1.08406,9.75657,1.08406,16.26092,1.08406,28.18557,8.67249,39.02618,23.84935,9.75657,14.09279,18.42905,28.18558,29.26966,44.4465,3.25218,5.42031,7.58844,8.6725,14.09279,8.6725-1.08405,2.16812-1.08405,4.33624-1.08405,7.58842H648.99562c-10.84061-19.5131-20.59718-36.85808-30.3537-52.03493-7.58844-11.92467-18.42905-18.429-34.69-18.429-15.17687,0-30.3537-1.08406-45.53057-1.08406-21.68122-1.08406-44.44651-1.08406-67.2118-1.08406-23.84935,0-48.78274,1.08406-72.6321,1.08406-19.51309,0-40.11027,1.08406-60.70742,1.08406-18.429,0-31.43777,7.58843-40.11026,21.68122-11.92468,19.5131-23.84934,40.11026-34.69,60.70743-3.25219,5.4203-5.42031,11.92467-2.16812,16.26091,3.25218,5.42031,9.75654,6.50437,16.26091,6.50437H643.57527c5.42031,0,11.92466-1.08406,15.17687-6.50437,2.16813-3.25218,2.16813-8.67249-1.084-14.09279a1.06172,1.06172,0,0,0-1.084-1.08407h27.10153c2.16813,14.0928,9.75657,27.10153,21.68122,34.69,2.16813,7.58843,4.33626,14.0928,6.50435,21.68123H684.76963a69.74145,69.74145,0,0,0-44.44649,16.26091c-5.42031-4.33624-13.00874-6.50437-19.51309-6.50437a35.91416,35.91416,0,0,0-4.33622,71.548v48.78277M614.30566,425.897h27.10152c1.084,2.16812,3.25218,5.4203,4.33626,7.58842h-371.833c0-1.08406,1.08406-2.16812,1.08406-3.25218,10.84062-20.59716,22.76529-40.11026,34.69-59.62336,6.50437-9.75655,15.17685-15.17686,29.26964-15.17686,20.59716,0,41.19432-1.08406,60.70743-1.08406,23.84935-1.08406,48.78275-1.08406,72.6321-1.08406h1.084c21.68123,0,44.44649,1.08406,65.04367,1.08406,15.17687,0,30.3537,1.08406,46.61462,1.08406,10.84061,0,18.429,4.33625,23.84935,11.92467,8.67248,14.0928,17.345,28.18559,26.01748,45.53057H615.38974a6.99473,6.99473,0,0,0-6.50435,6.50437C607.80131,422.6448,609.96939,425.897,614.30566,425.897ZM761.738,758.70376c0,9.75656-8.67248,18.429-18.429,18.429H730.30016c-9.75657,0-18.429-8.67248-18.429-18.429V668.7267c0-9.75657,8.67248-18.42905,18.429-18.42905H743.3089c9.75657,0,18.429,8.67248,18.429,18.42905ZM781.25108,495.2769c30.3537,0,56.37118,24.9334,56.37118,56.37117V648.1295c0,30.35372-24.93339,56.37116-56.37118,56.37116h-6.50435v-35.774a31.46035,31.46035,0,0,0-31.43779-31.43776H730.3002a31.46038,31.46038,0,0,0-31.43779,31.43776v35.774H685.85367c-30.3537,0-56.37118-24.93339-56.37118-56.37118V551.648c0-30.3537,24.93339-56.37118,56.37118-56.37118ZM735.7205,456.2507a39.0262,39.0262,0,1,1,39.02619-39.0262C774.74669,438.90572,756.31764,456.2507,735.7205,456.2507Z" fill="#737373"/>
      <line x1="264.15392" y1="615.60769" x2="603.46504" y2="615.60769" fill="none" stroke="#f80" stroke-linecap="round" stroke-miterlimit="10" stroke-width="19.84252"/>
    </g>
  </g>
</svg>
