<svg xmlns="http://www.w3.org/2000/svg" viewBox="0 0 1024 1024">
  <title>videojogos</title>
  <g id="0de9891f-0cb6-425b-9595-04f60ccb807e" data-name="Layer 4">
    <g>
      <path d="M317.92742,729.43382V597.14022c0-30.2088,8.33345-57.29251,31.25046-80.20952,16.66691-16.66691,37.50055-25.00036,62.50091-22.917h5.20841c1.04168,0,1.04168,0,2.08336-1.04168V460.67986c1.04169-1.04168,1.04169-1.04168,2.08336-1.04168,15.62523-2.08337,15.62523-2.08337,15.62523-18.75027V387.76213c0-11.4585,3.125-19.79195,13.54187-26.04205,2.08336-1.04168,3.125-6.25009,3.125-9.37513V258.59358c0-10.41682,3.125-16.66691,11.45851-21.87532,20.83363-13.54186,40.6256-27.08373,60.41755-40.62559,6.2501-4.16673,12.50019-7.29178,19.79195-3.125s9.37514,10.41682,9.37514,18.75028V353.38664c0,5.20841,1.04168,8.33344,6.25009,11.4585,8.33345,5.20841,10.41682,12.50019,10.41682,21.87533v73.95941c6.25009,0,10.41682,1.04169,16.66691,1.04169V674.22465c0,12.50019-2.08337,23.95868-12.50019,31.25046-6.25009,4.16674-14.58354,7.29178-21.87532,7.29178-21.87532,1.04167-42.709,0-65.626,0,0,6.25008-1.04169,10.41682-1.04169,16.66689Q402.30365,729.43384,317.92742,729.43382Zm18.75027-17.7086H467.92962c0-43.75064,1.04168-86.45959,0-129.16853,0-16.66689-7.29178-32.29212-17.70859-45.834-22.917-30.20877-61.45924-33.33382-87.50128-8.33344-13.54186,12.50019-23.95868,29.16708-25.00037,47.91735C335.636,621.09889,336.67769,665.89124,336.67769,711.72522ZM436.67916,478.38848c-3.12505,14.58355,0,25.00037,12.50018,35.41718,26.042,19.792,35.41719,48.95906,36.45886,80.20952s0,61.45925,0,92.7097V697.1417h61.45922c16.66692,0,21.87533-5.20841,21.87533-21.8753V479.43021C525.22212,478.38848,480.4298,478.38848,436.67916,478.38848Zm98.95978-118.75173V208.59288c-21.87532,14.58355-42.709,29.16709-63.5426,42.70895-2.08336,1.04169-3.125,4.16673-3.125,6.25009V352.345c0,2.08336,3.125,5.2084,4.16673,5.2084C493.97166,359.63675,514.8053,359.63675,535.63894,359.63675ZM553.34752,460.6799V385.6788c0-3.125-6.2501-8.33345-9.37513-8.33345-27.08374-1.04168-54.16745-1.04168-82.29287,0-3.12505,0-9.37513,5.20841-9.37513,8.33345-1.04169,25.00036,0,50.00072,0,75.0011Z" fill="#737373"/>
      <path d="M536.68063,553.38957v-45.834c0-6.2501,0-12.50019,8.33344-13.54186,8.33345,0,8.33345,7.29178,8.33345,13.54186v89.58465c0,6.25007,0,13.54185-8.33345,13.54185s-8.33344-7.29178-8.33344-13.54185Z" fill="#f80"/>
      <g>
        <path d="M700.22469,595.05684c-13.54186-8.33344-31.25046-5.20841-39.5839,8.33345-9.37516,14.58356-18.75027,29.16709-27.08374,43.75065-7.29178,13.54186-2.08337,30.20879,11.45851,38.54224,13.54185,7.29178,30.20879,4.16674,39.5839-8.33345a249.2127,249.2127,0,0,0,13.54186-21.8753h0a193.49158,193.49158,0,0,0,11.45848-19.792C717.93325,621.09889,713.76655,603.39033,700.22469,595.05684Zm1.04167,31.25046c-4.16675,7.29178-8.33345,14.58356-13.54186,22.917-10.41682-6.25008-19.792-11.45848-29.16709-17.7086,4.16675-7.29178,8.33345-15.62523,13.54186-21.8753,5.20841-7.29178,14.58356-8.33345,21.8753-4.16675S704.39139,619.01556,701.26636,626.3073Z" fill="#737373"/>
        <path d="M762.7256,686.72488c-16.66689,1.04167-33.33382,2.08337-48.959,4.16675a29.71333,29.71333,0,0,0-26.04205,31.25045A29.24629,29.24629,0,0,0,718.975,749.2258c8.33344,0,16.66689-1.04167,25.00038-2.08338h0c7.29178-1.04166,14.58356-1.04166,21.8753-2.08337,16.6669-1.04166,28.12542-14.58356,27.08371-31.25045C792.93435,698.18337,779.3925,686.72488,762.7256,686.72488Zm-22.917,14.58352c9.37516-1.04166,17.7086-2.08337,26.04205-2.08337s14.58356,7.29178,15.62523,15.62523-4.16674,16.6669-12.50019,17.7086-17.7086,1.04167-27.08371,2.08337C741.892,723.18375,740.85026,712.76693,739.80859,701.3084Z" fill="#737373"/>
        <path d="M587.723,735.6839c-5.20841,7.29178-9.37513,15.62523-14.58354,23.95868h0c-4.16672,7.29178-8.33345,13.54185-12.50019,20.83363-7.29178,13.54186-3.125,31.25046,10.41682,39.58391A28.74588,28.74588,0,0,0,610.64,810.685c8.33345-13.54189,17.7086-28.12542,26.042-41.66727,7.29178-12.50019,3.125-30.20879-9.37513-38.54224C613.76508,721.10038,596.05648,723.18375,587.723,735.6839Zm31.25046,3.12508c7.29178,4.16674,11.45851,13.54185,7.29178,20.83363s-8.33345,14.58357-13.54185,22.917c-10.41682-6.25007-19.792-11.45848-29.16709-17.7086,5.20841-8.33344,8.33345-15.62522,13.54186-21.8753C602.30658,735.6839,611.68171,734.64223,618.97349,738.809Z" fill="#737373"/>
        <path d="M654.39067,784.643c-13.54186,7.29178-19.792,25.00038-12.50019,38.54223s23.95868,20.83364,38.54224,13.54186c7.29178-3.125,15.62523-7.29178,22.917-10.41682h0a194.2328,194.2328,0,0,0,20.83364-10.41682c14.58356-7.29178,20.83363-23.95867,14.58356-38.54223a28.25922,28.25922,0,0,0-38.54224-14.58357C684.59946,770.05935,670.0159,776.30951,654.39067,784.643Zm28.12542-1.04167c6.25008-3.125,11.45848-5.20841,16.66689-8.33345a50.786,50.786,0,0,1,7.29179-3.125c8.33344-2.08338,16.66689,1.04166,19.792,8.33344,4.16674,7.29178,3.125,17.7086-4.16675,21.87531-7.29178,5.20841-16.66689,8.33344-25.00038,12.50019C692.93291,804.43493,687.7245,795.05978,682.51609,783.60129Z" fill="#737373"/>
      </g>
    </g>
  </g>
</svg>
