<svg xmlns="http://www.w3.org/2000/svg" viewBox="0 0 1024 1024">
  <title>casa-deco</title>
  <g id="54487311-709b-4d95-b3e0-860a3454f878" data-name="Layer 4">
    <g>
      <path d="M769.74029,352.97565c-.24528-6.80017,1.52909-25.43113-7.72849-32.45281-7.7317-5.86433-18.51513-6.28642-32.80574-.29232-39.21437,16.44442-195.39043,83.73456-196.9635,84.41307-.046.01955-.09092.04008-.13687.06061-.68046.30993-68.44673,30.70669-96.6056-.82808a7.09458,7.09458,0,0,0-10.58427,9.45016c34.81974,38.99831,108.95163,6.1603,113.009,4.31935,3.97619-1.71288,157.928-68.042,196.768-84.33,8.77264-3.678,15.25948-4.34183,18.26191-1.8693,4.36432,3.59392,2.34533,10.29318,2.73943,19.42534.023.53314-.16229,1.05393-.15349,1.58676.05182,3.16765,5.08,317.05177,2.584,345.76205-1.93872,22.28992-14.47637,25.31581-15.66619,25.5524a5.54355,5.54355,0,0,0-1.89962.55043c-1.82531.81733-182.94957,81.83006-220.53807,94.35891-30.475,10.158-48.5482,4.87956-73.5619-2.42266-4.5843-1.33843-9.325-2.72282-14.406-4.09058-27.02869-7.2768-29.14339-32.21425-29.27049-34.2478l-.001-190.39942c-.01271-1.16148-1.26218-116.71922-.002-160.818,1.05393-36.87481,17.30868-42.69488,18.8143-43.15439a4.656,4.656,0,0,0,1.25142-.42137l141.87175-62.62861L640.10506,288.555c3.00829-1.2612,10.35842-3.111,13.88-.7665,2.56639,1.707,3.10508,6.15053,3.10508,9.57824v36.77313a7.095,7.095,0,0,0,14.18992,0V297.36671c0-12.53863-5.166-18.57672-9.49905-21.43445-10.813-7.13211-25.59151-1.137-27.21347-.44191L622.6947,280.5212V264.124c0-12.53863-5.166-18.57672-9.49905-21.43347-10.81206-7.13016-25.59151-1.137-27.21346-.44191l-75.43512,31.964c-.03422.01466-.06844.02933-.10168.044-1.32377.58563-132.74324,58.64069-163.72074,66.0749-28.61056,6.86129-64.51551-15.49315-64.8753-15.72a7.09481,7.09481,0,0,0-7.58672,11.99113c1.43131.9063,30.74383,19.2171,60.80721,19.2171a64.0823,64.0823,0,0,0,14.96618-1.69137c32.12528-7.70893,159.944-64.15084,166.09844-66.87268l75.38525-31.94246c3.00927-1.26119,10.35842-3.11,13.881-.76649,2.56541,1.706,3.10411,6.15053,3.10411,9.57726v22.40993l-49.37237,20.92044-.09777.042L417.53343,369.9617c-4.9431,1.54569-27.6456,11.09949-28.93808,56.33729-1.268,44.3755-.01466,160.21384-.00293,161.301V738.22081c-20.21627,6.44652-40.87006,8.29419-66.42,5.96978-60.56865-5.50624-68.28052-37.05568-68.98249-40.80016V344.67327c0-29.05638,33.8-43.96195,35.20495-44.56713l190.85208-74.19249,28.22926-9.84808c4.22256-1.3179,17.23927-4.04267,23.14245.16816,1.3355.95127,3.12561,2.79907,3.25466,7.83407.40965,15.98492.23269,20.40888.15936,21.45694a7.10175,7.10175,0,0,0,6.9092,8.61133h.02347a7.10692,7.10692,0,0,0,5.07606-2.13719c2.31611-2.3689,2.672-2.73259,2.016-28.29477-.26886-10.51485-5.1709-16.16285-9.236-19.04894-12.77229-9.06887-33.43341-2.82155-35.74658-2.0795-.05768.01857-.11439.03715-.17011.0567l-28.44827,9.92434c-.07821.02737-.15642.0567-.23366.086L283.16041,286.91737c-.046.01857-.09092.03617-.13687.05475C281.22658,287.71417,239,305.59283,239,344.67327V703.94966a7.1592,7.1592,0,0,0,.05475.8799c.23855,1.90255,6.68727,46.66032,81.833,53.49228,7.28755.66286,14.272.99625,21.01992.99625a167.05869,167.05869,0,0,0,46.68475-6.27628V778.106c0,.09483.002.18869.00587.28352.51425,12.85833,9.48731,39.32876,39.7648,47.48058,4.93724,1.32963,9.60464,2.6925,14.11854,4.0104,15.87444,4.63416,29.74661,8.68465,45.797,8.68465,10.6967,0,22.36129-1.79891,36.22955-6.42231,37.4311-12.47606,206.88588-88.17613,221.13738-94.55054,5.123-1.18005,23.95685-7.58086,26.61416-38.14187C774.78214,670.44293,770.07661,373.9545,769.74029,352.97565ZM540.96436,239.94615a7.13036,7.13036,0,0,0-1.16563.09582,7.42587,7.42587,0,0,1,1.16367-.09582Zm-1.17247.09679a7.09447,7.09447,0,0,0-4.60581,2.88487A6.95938,6.95938,0,0,1,539.79189,240.04294Zm-5.19437,3.86742a7.05972,7.05972,0,0,0-.41428,1.04049A6.49406,6.49406,0,0,1,534.59752,243.91036Zm.558-.93856a7.11155,7.11155,0,0,0-.55067.9239A7.21917,7.21917,0,0,1,535.15553,242.9718Z" fill="#737373"/>
      <rect x="424.61451" y="465.34113" width="33.91992" height="295.10332" rx="16.1977" ry="16.1977" fill="#f80"/>
      <rect x="275.35461" y="397.00527" width="33.91992" height="295.10332" rx="16.1977" ry="16.1977" fill="#737373"/>
    </g>
  </g>
</svg>
