<svg xmlns="http://www.w3.org/2000/svg" viewBox="0 0 1024 1024"><g fill="#737373"><path d="M511.9 239.6h-81c-4.3.2-8-3.1-8.2-7.4s3.1-8 7.4-8.2H512c4.3-.2 8 3.1 8.2 7.4s-3.1 8-7.4 8.2h-.9z"/><circle cx="471.4" cy="782.9" r="19.5"/></g><g fill="#f80"><path d="M714.6 756.4c.2-7.7-3.7-14.9-10.3-18.9-8.2-5.3-17.6-8.3-27.4-8.6-13.6-.8-26.7.8-38.5 8.3-7.1 4.5-11.1 10.7-10.7 19.6.4 6.8.4 13.7 0 20.5-.4 4.9 1.7 6.6 6 7.1l38.4 2.9 38.3-3.5c3-.3 4.3-1.6 4.2-4.9-.2-7.4-.2-15 0-22.5z"/><circle cx="671" cy="696.1" r="18.1"/></g><path d="M790 750.1v-35.7h-13.7v-5.8l-.2-58.6c-.4-19.9-15.2-33.9-35.9-33.9h-13.9l-7.1-31.1c-.7-3.4-2-4.5-5.6-4.5H652v-337c0-36.8-29.8-66.6-66.6-66.6H349.1c-36.8.1-66.6 29.9-66.6 66.6v533c.1 36.8 29.9 66.6 66.6 66.6h233.2c5.7 3.6 12.4 5.6 19.3 5.4l.5.2 13.8-.1 8 34.6c.4.3.8.5 1.3.6h90.3c1.2-.1 2.3-.8 2.9-1.9l7.9-33.5h14.3c20.2 0 35.2-14.4 35.6-33.7s.2-39.1.2-58.1V750l13.6.1zM349.1 192.6h236.2c28.1 0 51 22.9 51 51v20.3H298.2v-20.3c0-28.2 22.8-51 50.9-51zm0 634.9c-28.1-.1-50.9-22.9-50.9-51v-30.7h267.5v66.1c0 5.4 1.1 10.7 3.3 15.6H349.1zm216.6-174v76.7H298.2V279.5h338.1v301h-3.5c-8.7 0-8.7 0-10.7 8.6l-6.2 27.1h-12.8c-22.7-.1-37.4 14.6-37.4 37.3zm194.7 160.8c-.2 11.2-8 18.4-19.9 18.4-13.5.3-26.8 0-40.3 0-32.3-.1-65.5-.2-98.3.3-5.3.3-10.5-1.7-14.3-5.4-4.1-4.2-6.3-9.8-6.3-15.6V653.4c0-14.3 7.7-21.8 21.8-21.8h137c12.3 0 20.1 7.1 20.3 18.5.4 19.4.2 39.1.2 58.2v48.2l-.2 57.8z" fill="#737373"/></svg>
