<svg xmlns="http://www.w3.org/2000/svg" viewBox="0 0 1024 1024">
  <title>livros</title>
  <g id="cc274f57-067b-47c1-9da1-752bd5713e99" data-name="Layer 4">
    <g>
      <path d="M684.68519,389.346a8.855,8.855,0,0,1-5.79629-2.31851c-3.47777-3.47778-3.47777-8.11482,0-11.5926l61.44073-62.6C753.08146,300.083,782.063,282.6941,804.08889,304.72c20.86666,20.86666,13.91112,42.8926,6.95554,51.00741a8.23808,8.23808,0,1,1-12.75184-10.43333c1.15925-2.31852,9.27407-13.91111-5.79629-28.98148s-39.41484,6.95556-40.57408,8.11481l-61.44073,62.6A8.855,8.855,0,0,1,684.68519,389.346Z" fill="#f80"/>
      <path d="M684.68519,646.70151a77.79,77.79,0,0,0-32.45925,6.95554l-39.41483-47.52961c18.54813-15.07036,31.3-31.3,48.6889-54.4852l10.43335-12.75185c32.45925-42.89261,49.84814-74.19259,31.3-100.85555-9.27407-12.75186-16.22965-23.18518-20.86666-32.45926-2.31853-4.637-5.7963-8.11481-8.11482-12.75186v-1.15926l1.15924-100.85556a7.924,7.924,0,0,0-8.11483-8.11481s-40.57407,3.47778-82.30739-10.43333c-40.57407-13.91112-63.75926-39.41482-63.75926-39.41482a9.0158,9.0158,0,0,0-9.27406-2.31852,8.71765,8.71765,0,0,0-5.79632,8.11482V485.56448l-51.00741,25.50371c-10.43333-3.47777-33.61851-12.75186-41.73334-20.86666-3.47777-3.47777-8.11482-3.47777-11.59259,0s-3.47777,8.11483,0,11.59259c8.11482,8.11483,22.02592,15.07037,33.61852,19.70742l-133.31482,67.237c-2.31852,1.15926-4.637,4.637-4.637,6.95554v55.64443l-75.35185,45.21113-20.86667-2.31852c-4.637-1.15925-8.11481,2.31852-9.27407,6.95553,0,4.63706,2.31852,8.11483,6.95556,9.27407L223.3,713.9385h1.15926c1.15926,0,3.47777,0,4.637-1.15924l71.87406-42.89261c-15.07037,11.5926-25.5037,28.98149-25.5037,49.84815,0,33.61853,27.82223,61.44073,61.44075,61.44073s61.44073-27.82224,61.44073-61.44073a62.84816,62.84816,0,0,0-6.95556-28.98149l22.02592-22.02594c38.25555-1.15924,81.14815-6.95554,119.4037-19.70742,31.3-10.43335,52.16667-20.86666,69.55556-31.3l38.25554,46.37037c-16.22964,13.91112-26.66295,33.61854-26.66295,56.80373a73.03333,73.03333,0,0,0,146.06665,0C757.71852,679.16076,725.25927,646.70151,684.68519,646.70151Zm4.63706-199.3926c9.27406,13.91112,8.11482,32.45925-30.14073,82.30741l-10.43335,12.75186c-16.22965,22.02592-28.98148,38.25554-45.21113,51.0074l-54.48519-66.07776L664.97778,409.05336c1.15924,1.15926,2.31852,3.47777,3.47777,4.637C673.0926,422.96448,680.04814,433.39781,689.32225,447.30891ZM517.75186,498.31633c1.15926-1.15926,2.31853-1.15926,3.47777-2.31852L624.4037,342.97558c2.31853-3.47778,1.15924-9.27407-2.31853-11.59259s-9.27406-1.15926-11.59259,2.31852L522.38889,464.6978V257.19039a196.50551,196.50551,0,0,0,55.64444,31.3c33.61854,11.59259,64.9185,12.75185,79.98891,11.59259L656.863,391.66447v1.15926a1.13536,1.13536,0,0,0-1.15925,1.15927l-250.4,257.35557A840.483,840.483,0,0,1,314.88147,649.02V601.49043ZM307.92592,665.24964Zm27.82222,98.537A45.26675,45.26675,0,0,1,290.537,718.57555c0-25.50371,19.70741-45.21113,45.21111-45.21113s45.21111,19.70742,45.21111,45.21113A45.26675,45.26675,0,0,1,335.74814,763.78668ZM379.8,676.84224a63.70976,63.70976,0,0,0-10.43333-8.11483h18.54815Zm146.06665-45.21109c-30.14074,10.43335-64.91852,16.22965-96.21851,18.54813L538.61852,538.89039l52.16669,63.75923C574.55556,613.083,554.84814,622.35709,525.86666,631.63115ZM684.68519,776.53856a56.80372,56.80372,0,1,1,56.80373-56.80372A56.89593,56.89593,0,0,1,684.68519,776.53856Z" fill="#737373"/>
    </g>
  </g>
</svg>
