<svg xmlns="http://www.w3.org/2000/svg" viewBox="0 0 1024 1024">
  <title>informatica</title>
  <g id="5141f53f-544d-4852-b7dd-b9d5575b0c75" data-name="Layer 4">
    <g>
      <path d="M874.41882,667.93952H150.9068V291.053a48.36251,48.36251,0,0,1,48.3075-48.14242H825.67116A48.39,48.39,0,0,1,874.41882,290.888ZM166.725,652.20382H858.16042V291.13556a32.62684,32.62684,0,0,0-32.48926-32.57179H199.2143A32.62681,32.62681,0,0,0,166.725,291.13556Z" fill="#737373"/>
      <path d="M864.2401,780.40026H162.461a61.92491,61.92491,0,0,1-61.75986-61.78739V703.53742H926v15.07545A61.92493,61.92493,0,0,1,864.2401,780.40026ZM116.29926,719.41068a46.05169,46.05169,0,0,0,46.05168,45.33641H864.2401a46.02418,46.02418,0,0,0,46.0242-45.25388Z" fill="#737373"/>
      <path d="M814.96983,344.00971a5.337,5.337,0,0,1-3.989-1.67811l-42.31033-42.8055a5.59266,5.59266,0,1,1,7.86785-7.95037L818.84866,333.886a5.502,5.502,0,0,1,.05961,7.78077l-.05961.05957h0A5.00683,5.00683,0,0,1,814.96983,344.00971Z" fill="#f80"/>
      <path d="M772.54943,343.23943a5.50185,5.50185,0,0,1-3.98894-1.67811,5.66709,5.66709,0,0,1,0-7.86785l42.28285-41.26494a5.502,5.502,0,0,1,7.78075-.05959q.03009.02956.0596.05959h0a5.66708,5.66708,0,0,1,0,7.86785l-42.2828,41.26494A5.50189,5.50189,0,0,1,772.54943,343.23943Z" fill="#f80"/>
    </g>
  </g>
</svg>
