<svg xmlns="http://www.w3.org/2000/svg" viewBox="0 0 1024 1024">
  <title>escritorio</title>
  <g id="882c7f5e-ebfa-48a9-8a54-c99b4886cace" data-name="Layer 4">
    <g>
      <path d="M643.87788,474.45692H605.69852c0-43.26994-13.99908-77.63137-38.17936-103.08428C529.3398,333.19328,477.16133,330.648,465.70753,330.648H354.98736c-132.35509,0-151.44477,129.80985-152.71742,146.35423H167.90852A8.699,8.699,0,0,0,159,485.91075V722.62283a8.699,8.699,0,0,0,8.90852,8.90852H278.62866v76.35873a8.90852,8.90852,0,1,0,17.817,0V731.53135H512.79542v76.35873a8.90853,8.90853,0,1,0,17.817,0V731.53135H643.87788a8.699,8.699,0,0,0,8.90853-8.90852V483.36545C654.05909,478.27487,648.96848,474.45692,643.87788,474.45692ZM354.98739,347.19239H463.16225c2.5453,0,54.72377,1.27265,90.35783,35.63408,21.635,21.635,33.08876,52.17846,33.08876,90.35783H550.97478a8.699,8.699,0,0,0-8.90853,8.90852V620.81119H263.35692V484.6381a8.699,8.699,0,0,0-8.90851-8.90853H220.087C222.63227,455.36724,240.44931,347.19239,354.98739,347.19239Zm279.982,365.24924H176.81705V493.5466h68.72286V630.9923a8.699,8.699,0,0,0,8.90852,8.90853h297.799a8.699,8.699,0,0,0,8.90853-8.90853V492.274H634.9694Z" fill="#737373"/>
      <path d="M856.40968,366.28207H608.24382c-2.5453,0-6.36323-1.27265-7.63585-3.81793a10.87064,10.87064,0,0,1,0-8.90852L669.33084,212.292c1.27263-2.54529,5.0906-5.09058,7.63585-5.09058H782.59625c3.81793,0,6.36323,1.27265,7.63586,5.09058l73.81342,139.991a10.87064,10.87064,0,0,1,0,8.90852C861.50028,363.73679,858.955,366.28207,856.40968,366.28207Zm-232.8941-19.08968H841.13792l-63.63227-123.4466H683.32987Z" fill="#737373"/>
      <path d="M729.14514,787.61828a8.699,8.699,0,0,1-8.90853-8.90853v-393.338a8.90852,8.90852,0,0,1,17.817,0v393.338A8.699,8.699,0,0,1,729.14514,787.61828Z" fill="#f80"/>
      <path d="M785.14155,812.98063H674.42139a8.90852,8.90852,0,0,1,0-17.817H785.14155a8.90853,8.90853,0,1,1,0,17.817Z" fill="#737373"/>
    </g>
  </g>
</svg>
