<svg xmlns="http://www.w3.org/2000/svg" viewBox="0 0 1024 1024">
  <title>eletrodomesticos</title>
  <g id="3b9f02db-3df7-443c-ab60-8b3c33244d7b" data-name="Layer 4">
    <g>
      <path d="M369.802,371.43332a9.38332,9.38332,0,0,1-9.38334-9.38329l0-.02439V291.12678a9.38331,9.38331,0,0,1,18.76661-.01619v70.91505a9.38331,9.38331,0,0,1-9.35891,9.40765Z" fill="#f80"/>
      <path d="M369.802,611.573a9.38332,9.38332,0,0,1-9.3833-9.38333h0V456.54118a9.38331,9.38331,0,0,1,18.76661,0v145.6485A9.3833,9.3833,0,0,1,369.802,611.573Z" fill="#f80"/>
      <path d="M642.38117,160.83278h-258.687A62.41731,62.41731,0,0,0,321.35,223.177v587.956a62.31984,62.31984,0,0,0,51.83976,61.36929V892h75.06649V873.47708H561.07534V892h75.06651V873.47708h6.23929a62.41733,62.41733,0,0,0,62.34419-62.34416V223.177A62.41729,62.41729,0,0,0,642.38117,160.83278Zm-258.687,18.76663h258.687a43.62631,43.62631,0,0,1,43.69938,43.55312l0,.02444V405.40821h-345.964V223.177A43.6263,43.6263,0,0,1,383.69419,179.59941Zm258.687,675.11109h-258.687a43.62632,43.62632,0,0,1-43.57756-43.57758V433.58254h345.964V811.13292a43.62625,43.62625,0,0,1-43.67494,43.57758Z" fill="#737373"/>
    </g>
  </g>
</svg>
