<svg xmlns="http://www.w3.org/2000/svg" viewBox="0 0 1024 1024">
  <title>beleza</title>
  <g id="a33ea312-590e-4efb-9cff-05825bc2121d" data-name="Layer 4">
    <g>
      <path d="M860.979,619.036h0L524.99359,480.41261v-10.573H508.54676v10.573L163.16313,619.036h-1.17477c-1.17478,0-21.14594,11.74774-18.79639,37.59278,2.34955,35.24322,34.06845,35.24322,44.64142,35.24322H836.30875c10.573,0,42.29185,0,44.64141-35.24322C882.12492,630.7837,862.15379,619.036,860.979,619.036Zm-24.67024,56.38915H187.83339c-22.32071,0-27.01981-7.04863-28.19458-19.97117-1.17478-14.0973,8.22342-19.97117,10.573-22.32071l345.3836-139.79812L853.93032,633.13323c2.34956,1.17478,10.573,8.22343,10.573,22.32071C862.15379,669.55124,857.45468,675.42511,836.30875,675.42511Z" fill="#737373"/>
      <path d="M524.99359,456.91713c0-8.22342,0-18.7964,1.17476-27.01981,1.17475-18.79639,5.87387-24.67025,15.272-36.418l3.52432-3.52432c3.52431-3.52433,7.04862-7.04865,11.74774-11.74774,11.74774-9.3982,24.67024-21.14594,24.67024-42.29187,0-7.04865,0-31.71891-17.62162-49.34052-10.573-11.74774-25.845-16.44683-45.81621-16.44683-46.991,0-61.08826,38.76754-62.263,59.91348,0,4.69909,3.52431,8.22341,8.22343,9.39819,4.69909,0,8.22343-3.52432,9.39818-8.22341,0-2.34955,3.52432-44.64142,45.81621-44.64142,15.27206,0,25.84505,3.52432,34.06847,11.74774,12.9225,12.92252,12.9225,34.06845,12.9225,37.59277,0,14.09729-8.22343,21.14594-18.79637,29.36936-4.69911,3.52432-9.39818,8.22342-14.0973,12.92252l-3.52431,3.52432c-10.573,11.74775-18.79639,21.14594-19.97117,46.991a278.77161,278.77161,0,0,1-1.17478,28.19459C515.59538,456.91713,516.77016,456.91713,524.99359,456.91713Z" fill="#f80"/>
    </g>
  </g>
</svg>
