<svg xmlns="http://www.w3.org/2000/svg" viewBox="0 0 1024 1024">
  <title>gastronomia</title>
  <g id="cd0b3439-f225-4668-9b35-570a3108df9e" data-name="Layer 4">
    <g>
      <path d="M772.38073,398.39649h0c-5.76668-1.15334-8.07335-4.61333-8.07335-9.22668,0-1.15334,3.46-29.9867-31.14006-42.67339-41.52-14.99336-53.05338-19.60669-54.2067-19.60669-4.61336-1.15333-5.76668-6.92-4.61336-10.38,1.15332-4.61334,6.92-5.76667,10.38-4.61334,0,0,11.53335,4.61334,53.05339,19.60669,38.06005,13.84,43.82672,44.98007,41.52,59.97342Q779.30072,398.39649,772.38073,398.39649Z" fill="#f80"/>
      <path d="M780.45408,667.12352V424.92319a8.07335,8.07335,0,1,0-16.1467,0V670.58356s1.15331,4.61336-1.15332,6.92c-2.30668,3.46-9.22667,5.76668-18.45334,5.76668s-16.14671-2.30668-20.76-5.76668a16.86832,16.86832,0,0,1-3.46-9.22667V475.66994q0-20.76-13.84-31.14c-13.84-11.53335-35.75336-10.38-46.13339-9.22667V281.90967c0-16.14669-12.68667-28.83338-27.68006-28.83338H335.2668c-14.99336,0-27.68,12.68669-27.68,28.83338V754.777H251.07334a8.07336,8.07336,0,0,0,0,16.14671h468.254a8.07336,8.07336,0,0,0,0-16.14671H659.35392V451.4499c9.22667-1.15334,26.52669-2.30668,35.75336,4.61334,4.61336,3.46,6.92,10.38,6.92,18.45336V665.9702a32.61229,32.61229,0,0,0,8.07336,20.76c6.92,8.07336,18.45334,11.53335,32.29336,11.53335,14.99335,0,25.37338-3.46,31.14006-11.53335C781.6074,679.81023,781.6074,670.58352,780.45408,667.12352ZM323.73344,754.777V281.90968c0-6.92,5.76668-12.68668,11.53336-12.68668H631.6739c6.92,0,11.53335,5.76667,11.53335,12.68668V754.777Z" fill="#737373"/>
      <path d="M520.95372,311.89637h-76.1201a77.27344,77.27344,0,0,0,0,154.54688h76.1201a77.278,77.278,0,0,0,77.27345-77.27344C599.38049,346.49642,564.78044,311.89637,520.95372,311.89637Zm0,139.55353h-76.1201c-33.44671,0-61.12676-27.68-61.12676-61.12675s27.68-61.12675,61.12676-61.12675h76.1201c33.44671,0,61.12675,27.68,61.12675,61.12675A60.79007,60.79007,0,0,1,520.95372,451.4499Z" fill="#737373"/>
    </g>
  </g>
</svg>
