<svg xmlns="http://www.w3.org/2000/svg" viewBox="0 0 1025.41421 1025.41421">
  <title>moda</title>
  <g id="ad30b9c9-18b8-4438-8d48-08f5008e3bbc" data-name="Layer 4">
    <g>
      <path d="M495.6049,480.21076H522.583c41.69342,0,132.43793-4.9051,138.56932-47.82481,6.13139-45.37226,3.67882-76.02918-14.71534-143.47443l-3.67882-12.26277C626.81657,215.33489,614.55379,166.2838,544.656,166.2838H473.53191c-69.89779,0-82.16057,49.05109-98.10217,110.365l-3.67884,12.26277C353.35673,357.583,350.90418,388.24,357.03556,432.386,363.16694,475.30566,453.91145,480.21076,495.6049,480.21076ZM388.91877,291.36407l3.67883-12.26277c17.16788-66.219,28.20438-100.55473,80.93429-100.55473H544.656c52.72993,0,64.99271,34.33577,80.9343,100.55473l3.67882,12.26277c17.16788,66.219,20.84673,96.8759,14.71534,139.7956-3.67882,30.65693-80.9343,35.562-123.854,35.562H500.51c-44.146,0-120.17517-4.90511-123.854-35.562C368.07206,388.24,370.52461,357.583,388.91877,291.36407Z" fill="#737373"/>
      <path d="M753.12311,389.46625H701.61946a8.584,8.584,0,1,0,0,17.1679h17.1679v115.27s0,17.16788-12.26277,30.65693l-1.22626,1.22629h0c-8.58395-31.88322-84.61313-50.27737-215.8248-50.27737-104.23356,0-160.64232,13.48905-172.90509,42.9197a22.734,22.734,0,0,0-2.45258,8.58392l-1.22628-1.22628a47.381,47.381,0,0,1-13.489-31.88321v-115.27H319.021a8.584,8.584,0,0,0,0-17.1679H266.29105a8.584,8.584,0,0,0,0,17.1679h14.71532v115.27a63.83043,63.83043,0,0,0,17.16788,44.146c6.13139,6.13139,13.48905,11.03651,22.073,15.9416,1.22628,2.45256,3.67883,2.45256,6.13139,2.45256q18.39416,7.3577,44.146,7.35764H496.83115v154.511l-82.16057-24.52554c-4.9051-1.22626-9.81022,1.22625-11.03649,6.13138s1.22628,9.81021,6.13139,11.03652l69.8978,20.84672L370.52461,791.68517c-4.9051,1.22626-7.35767,6.13138-6.13139,11.03651a9.22161,9.22161,0,0,0,8.58394,6.13139h2.45255l136.11678-39.24088L640.3056,806.4005h2.45256a9.22163,9.22163,0,0,0,8.584-6.13138c1.22626-4.90513-1.22626-9.81021-6.13139-11.03652l-101.781-30.65693L610.875,738.95526c4.90511-1.22626,7.35767-6.13139,6.13139-11.03652s-6.13139-7.35764-11.03649-6.13138l-89.51825,25.7518V590.57573h128.7591c33.1095,0,57.635-8.584,73.57664-24.52554a63.26579,63.26579,0,0,0,17.1679-42.9197V407.86041h17.1679a8.382,8.382,0,0,0,8.58395-8.584C761.70711,394.37133,756.80193,389.46625,753.12311,389.46625ZM510.32021,573.40783H372.97715A127.7547,127.7547,0,0,1,332.51,567.27645c-1.22628-2.45257-3.67883-8.58395-1.22628-13.48906,4.90511-9.81021,28.20438-31.88321,158.18977-31.88321,187.62042,0,198.65694,35.56206,198.65694,36.78832,1.22626,4.90512-4.90513,8.58395-7.35765,9.8102h0c-9.81021,2.45257-20.84672,4.90513-34.33575,4.90513Z" fill="#737373"/>
      <circle cx="374.20344" cy="840.73626" r="18.39416" fill="#f80"/>
      <circle cx="646.43698" cy="840.73626" r="18.39416" fill="#f80"/>
    </g>
  </g>
</svg>
