<svg xmlns="http://www.w3.org/2000/svg" viewBox="0 0 1024 1024"><path d="M369.802 371.433a9.383 9.383 0 0 1-9.383-9.383v-70.923a9.384 9.384 0 0 1 18.767-.016v70.915a9.383 9.383 0 0 1-9.359 9.408zm0 240.14a9.383 9.383 0 0 1-9.383-9.383V456.54a9.383 9.383 0 0 1 18.767 0V602.2a9.383 9.383 0 0 1-9.383 9.383z" fill="#f80"/><path d="M642.38 160.833H383.694a62.417 62.417 0 0 0-62.344 62.344v587.956a62.32 62.32 0 0 0 51.84 61.369V892h75.066v-18.523h112.82V892h75.067v-18.523h6.24a62.417 62.417 0 0 0 62.344-62.344V223.177a62.417 62.417 0 0 0-62.344-62.344zM383.694 179.6H642.38a43.626 43.626 0 0 1 43.699 43.553v182.256H340.117v-182.23a43.626 43.626 0 0 1 43.578-43.578zM642.38 854.71H383.694a43.626 43.626 0 0 1-43.578-43.578v-377.55H686.08v377.55a43.626 43.626 0 0 1-43.675 43.578z" fill="#737373"/></svg>