<svg xmlns="http://www.w3.org/2000/svg" viewBox="0 0 1024 1024"><path d="M860.086 246.837H164.02c-25.387-.033-46 23.18-46.02 51.85v353.52c.03 28.628 20.564 51.83 45.914 51.88h310.34v54.876h-213.68c-4.446.287-7.845 4.6-7.59 9.61.234 4.62 3.5 8.308 7.59 8.572h482.86c4.446.287 8.257-3.55 8.51-8.572s-3.145-9.324-7.59-9.61a7.137 7.137 0 0 0-.92 0h-210.71v-54.876h327.36c25.35-.05 45.885-23.253 45.914-51.88v-353.52c-.03-28.623-20.568-51.818-45.914-51.85zm29.813 405.37c-.015 18.587-13.354 33.65-29.813 33.667H164.02c-16.48.05-29.874-14.998-29.918-33.608v-.06-353.52c.014-18.587 13.354-33.65 29.813-33.667H859.98c16.46.016 29.798 15.08 29.813 33.667z" fill="#737373"/><path d="M550.638 407.6a7.45 7.45 0 0 0-11.252-1.824l-111.44 94.342a9.869 9.869 0 0 0-1.644 12.702l.016.024a7.869 7.869 0 0 0 6.462 3.649 7.313 7.313 0 0 0 4.833-1.839L549 420.305a9.905 9.905 0 0 0 1.629-12.696zm46.177 15.87l-111.423 94.446a9.928 9.928 0 0 0-1.208 12.806 7.451 7.451 0 0 0 10.874 1.758l111.502-94.476a9.885 9.885 0 0 0 1.602-12.725 7.459 7.459 0 0 0-11.268-1.809z" fill="#f80"/></svg>