<svg xmlns="http://www.w3.org/2000/svg" viewBox="0 0 1024 1024">
  <title>animais</title>
  <g id="0a9f22a7-2234-406b-af3d-826b630d1623" data-name="Layer 4">
    <g>
      <path d="M860.08584,246.83722H164.01917C138.6325,246.80445,118.029,270.01868,118,298.68766V652.20823c.02891,28.62752,20.5642,51.83113,45.91413,51.88015H474.25481v54.87607H260.57546c-4.44629.28687-7.84482,4.58986-7.59081,9.611.23375,4.6206,3.49925,8.3083,7.59081,8.57226H743.4356c4.44629.28687,8.25667-3.55105,8.51066-8.57226s-3.1445-9.32414-7.59079-9.611a7.13719,7.13719,0,0,0-.91987,0H532.7244V704.08838H860.08584c25.35-.049,45.88522-23.25263,45.91416-51.88015V298.68768C905.97106,270.065,885.43155,246.8699,860.08584,246.83722Zm29.81268,405.371c-.01451,18.58715-13.35361,33.65089-29.81268,33.66723H164.01917c-16.47953.04915-29.8741-14.99757-29.91761-33.6078l-.00009-.05943V298.68768c.01448-18.5871,13.35359-33.65084,29.81266-33.66721h696.0667c16.45907.01634,29.79817,15.08009,29.81268,33.66721Z" fill="#737373"/>
      <path d="M550.63828,407.60926a7.45034,7.45034,0,0,0-11.25158-1.82366l-.0168.01423L427.94667,500.12735a9.86868,9.86868,0,0,0-1.64428,12.70154l.01574.02376a7.86916,7.86916,0,0,0,6.46159,3.6485,7.31272,7.31272,0,0,0,4.83306-1.83907l111.39694-94.35717A9.90488,9.90488,0,0,0,550.63828,407.60926Z" fill="#f80"/>
      <path d="M596.81505,423.47885,485.39185,517.925a9.9277,9.9277,0,0,0-1.20792,12.806,7.451,7.451,0,0,0,10.874,1.75837L606.56,438.01357a9.88458,9.88458,0,0,0,1.60227-12.7253,7.45923,7.45923,0,0,0-11.26838-1.80945Z" fill="#f80"/>
    </g>
  </g>
</svg>
