<svg xmlns="http://www.w3.org/2000/svg" viewBox="0 0 1024 1024">
  <title>combustivel</title>
  <g id="0132b675-912d-4701-b326-d2df3014cb8c" data-name="Layer 4">
    <g>
      <path d="M656.60737,701.24468a111.60568,111.60568,0,0,1-19.14977,12.391c-3.37936,2.25292-4.50584,6.75872-2.25292,11.26456,1.12644,2.25292,4.50584,3.37936,6.75872,3.37936,1.12644,0,3.37936,0,4.50584-1.12644q10.1381-6.75876,20.27621-13.51748a7.5264,7.5264,0,0,0,1.12644-11.26456C664.49253,700.11819,659.98673,698.99176,656.60737,701.24468Z" fill="#737373"/>
      <path d="M513.5474,258.5473c-21.40267,0-41.6789,2.25291-61.9551,7.8852h0c-2.25292,0-3.37936,0-4.50582,1.12645C384.0049,284.4558,329.935,326.13468,296.14131,383.584c-2.25291,3.37937-1.12646,9.01165,3.37937,11.26456h0a4.13821,4.13821,0,0,0,3.37937,1.12646l28.16141,6.75874h4.50582l68.71384-24.782,51.817,66.46092L433.569,531.14974l-83.35777,31.54077-36.04661-49.56406a15.54981,15.54981,0,0,0-4.50583-3.37936l-38.29951-12.391h0c-1.12646,0-1.12646-1.12646-2.25292-1.12646a7.69974,7.69974,0,0,0-7.88519,7.8852V512c0,139.68057,113.7721,253.45269,253.45268,253.45269a241.78387,241.78387,0,0,0,90.11651-16.89685c1.12646,0,3.37936-1.12644,4.50582-1.12644s2.25292-1.12644,3.37936-1.12644a7.84487,7.84487,0,0,0-5.63228-14.644l-12.391-15.77041c-1.12646-1.12644-2.25292-2.25292-4.50582-2.25292l-66.46092-18.02329L522.559,591.9784l66.46092-45.05826,85.61067,32.66723L670.12477,652.807c0,2.25292,0,3.37936,1.12644,4.50584l13.51748,20.27621c-1.12644,1.12644-1.12644,2.25292-2.25292,2.25292a7.52536,7.52536,0,0,0,0,11.26456,8.1668,8.1668,0,0,0,11.26457,0C741.09151,643.79538,767,579.58737,767,513.12645,767.00009,372.31939,653.228,258.5473,513.5474,258.5473ZM679.1365,562.69053,593.52581,530.0233l-23.65559-85.61069,55.19638-70.96676,66.46094,25.9085h5.63228l21.40269-7.88519c16.89685,29.28786,28.16141,60.82865,31.54077,95.7488l-25.90849,11.26457c-1.12643,1.12646-2.25292,1.12646-3.37936,2.25292Zm31.54077-183.61239-15.77041,5.63228-66.46094-27.035-39.426-50.69054L586.767,286.70871A231.73646,231.73646,0,0,1,710.67727,379.07814ZM570.99666,282.20289l2.25292,28.1614c0,1.12646,1.12646,3.37937,1.12646,4.50583l37.173,49.56408L556.35273,435.401H466.23622L414.41923,368.94l38.29951-49.56408c1.12646-1.12646,1.12646-2.25291,1.12646-4.50583l2.25292-32.66723a224.47839,224.47839,0,0,1,55.19636-6.75874C533.82361,274.31769,552.97337,277.69706,570.99666,282.20289ZM331.06146,386.96333l-15.77039-4.50582a241.96906,241.96906,0,0,1,127.28956-96.87526l-2.25292,24.782-39.426,50.69054ZM505.6622,590.85194l1.12646,102.50753-66.46093,15.77041c-1.12646,0-2.25292,1.12644-3.37937,2.25292l-19.14975,16.89685c-25.9085-11.26457-49.56408-27.035-68.71385-47.31118l13.51748-20.27621c1.12646-1.12644,1.12646-3.37936,1.12646-4.50584l-7.88519-78.85195,82.2313-30.41433ZM340.07311,576.208l6.75874,78.85195-9.01166,14.64392a238.27221,238.27221,0,0,1-60.82864-154.32453l25.9085,9.01169ZM590.14643,736.16481a253.503,253.503,0,0,1-76.599,12.391c-28.16141,0-55.19636-5.63228-79.97841-14.64392l12.391-11.26457,68.71384-15.7704L583.3877,724.9002ZM513.5474,576.208,448.21294,534.5291l21.40267-83.35777h85.61068l22.52913,82.23133Zm182.48594,87.86359-10.13812-14.64392,4.50584-74.34613,42.80533-60.82864,18.02329-7.8852V512C751.22968,568.32281,730.95347,621.26625,696.03334,664.07158Z" fill="#737373"/>
      <path d="M271.35927,473.70048h0c4.50582,0,7.88519-2.25292,9.01165-6.75874,2.25291-11.26457,5.63228-23.65559,9.01165-34.92016,1.12646-4.50582-1.12646-9.01165-4.50583-10.1381-4.50582-1.12646-9.01165,1.12645-10.1381,4.50582a228.05894,228.05894,0,0,0-10.13811,37.173Q264.60053,472.01079,271.35927,473.70048Z" fill="#f80"/>
    </g>
  </g>
</svg>
