<svg xmlns="http://www.w3.org/2000/svg" viewBox="0 0 1024 1024">
  <title>desporto</title>
  <g id="16f5669f-6d95-4144-b395-ac2f74a894f5" data-name="Layer 4">
    <g>
      <path d="M430.14657,435.372H410.61V415.81358a15.85343,15.85343,0,0,0-31.70686,0V435.372H359.35205a15.84615,15.84615,0,1,0,0,31.6923h19.55111v19.55111a15.85343,15.85343,0,0,0,31.70686,0V467.06427h19.53655a15.84615,15.84615,0,1,0,0-31.6923Z" fill="#f80"/>
      <circle cx="638.82553" cy="413.17811" r="15.84899" fill="#737373"/>
      <circle cx="638.82553" cy="487.14007" r="15.84899" fill="#737373"/>
      <circle cx="682.1461" cy="452.2723" r="15.84899" fill="#737373"/>
      <circle cx="597.61814" cy="452.2723" r="15.84899" fill="#737373"/>
      <path d="M824.035,643.31033c-8.57734-31.09287-57.8971-185.48509-60.0414-191.91811l-19.299-61.11358c0-1.07218-11.79384-63.25793-96.49514-63.25793H554.92082a37.143,37.143,0,0,0-72.90743,0H375.86874c-83.62912,0-96.49514,62.18576-96.49514,62.18576h0l-19.299,62.18576c-2.14433,6.433-51.46408,160.82524-60.04142,191.91811-4.28867,16.08252-2.14434,33.2372,7.50518,47.17542,10.72168,18.22687,31.09288,30.0207,55.75274,35.38154,51.46408,9.64953,77.19612-43.95888,97.56731-99.71163,20.37119-52.53624,57.89708-50.39192,60.04142-50.39192H602.09624s38.598-2.14434,58.96925,50.39192c19.299,51.46406,42.88673,100.78382,85.77346,100.78382a43.98026,43.98026,0,0,0,11.79383-1.07215c24.65987-4.28869,45.03108-17.15467,55.75276-35.38154C826.17937,676.54753,828.32372,659.39285,824.035,643.31033Zm-19.299,39.67023c-8.57734,15.01037-25.732,24.65986-46.10323,28.94855-36.45373,6.433-57.8971-27.87635-81.48476-90.06212-24.65986-63.25792-71.83528-60.04143-73.97963-60.04143H423.04414c-2.14435,0-50.39192-3.21649-73.9796,60.04143-23.5877,62.18577-45.03107,97.56731-81.48479,90.06212-20.3712-4.28869-37.52589-13.93818-46.10323-28.94855a47.74126,47.74126,0,0,1-5.36084-36.45373c8.57733-31.09288,58.96924-189.77377,60.0414-190.84594l19.299-63.25792c0-2.14433,10.72169-51.46408,82.557-51.46408h270.1864c71.83527,0,81.48476,49.31974,82.557,52.53625l19.299,63.25792c0,1.07218,51.46406,160.82524,60.0414,190.846C813.31335,659.39285,811.169,672.25888,804.736,682.98056Z" fill="#737373"/>
    </g>
  </g>
</svg>
