<svg xmlns="http://www.w3.org/2000/svg" viewBox="0 0 1024 1024">
  <title>gastronomia</title>
  <g id="ae024986-a073-4279-955a-505da29cb424" data-name="Layer 4">
    <g>
      <path d="M697.70678,580.51385c-12.66619,0-26.08851-2.51215-38.28411-9.85557-29.709-17.89046-66.34353-9.10442-66.70866-9.01189a7.22022,7.22022,0,1,1-3.47423-14.01628c1.73513-.42782,42.86069-10.2814,77.63178,10.65746,31.05609,18.70131,75.36836-2.33007,75.81109-2.546a7.22,7.22,0,0,1,6.30772,12.98954C747.57064,569.4216,724.31463,580.51186,697.70678,580.51385Z" fill="#f80"/>
      <path d="M487.32113,376.64529c-4.94084-4.87649-9.93173-9.79588-14.72242-14.844a72.53991,72.53991,0,0,1-20.1316-53.44831l.0286-153.495a17.25776,17.25776,0,0,0-5.59866-12.78469c-10.52879-9.96078-33.3918-9.41513-38.67049-9.1537-4.6298-.2516-23.18119-.70385-32.88948,8.38862A18.146,18.146,0,0,0,369.456,154.858V307.1732l.0286,1.1798A72.53992,72.53992,0,0,1,349.353,361.80131c-4.79068,5.0481-9.78157,9.96749-14.72242,14.844-21.03968,20.7501-42.798,42.20808-44.02067,69.69374-1.34068,30.167-.06078,390.11194-.00715,405.42068a7.25617,7.25617,0,0,0,.0858,1.11544c1.97348,13.25661,14.43283,38.31118,47.46354,38.31118H483.79962c33.0307,0,45.49006-25.05457,47.46354-38.31118a7.25617,7.25617,0,0,0,.0858-1.11544c.05363-15.30874,1.33353-375.25366-.00715-405.42068C530.11911,418.85337,508.36082,397.39539,487.32113,376.64529ZM305.62188,511.90707h210.707c.11351,51.31485.01788,124.18243-.12334,189.31072H305.74523C305.604,636.0895,305.50927,563.22192,305.62188,511.90707ZM385.97669,152.67c3.77892-3.55369,15.23724-4.56188,21.769-4.19721.16982.013.31729-.06436.48622-.063.17786.00045.3298.08179.51124.07017,8.50168-.46477,23.11684.78653,27.46064,4.90509a1.76226,1.76226,0,0,1,.72575,1.47295l-.01341,109.628h-51.894V154.858A2.642,2.642,0,0,1,385.97669,152.67ZM345.56333,387.72822c5.06239-4.99805,10.17484-10.039,15.07993-15.21579,16.535-17.42522,25.20115-40.39906,24.37887-65.33923V280.05935h51.89224l-.00269,27.77883a88.93177,88.93177,0,0,0,24.39675,64.67425c4.90509,5.1768,10.01754,10.21774,15.07993,15.21579,19.77409,19.4988,38.45061,37.91791,39.4016,59.29724.25205,5.67553.40757,23.76752.49516,49.30831H305.66478c.0876-25.54079.2449-43.63278.49695-49.30831C307.11272,425.64613,325.78924,407.227,345.56333,387.72822Zm138.23629,487.892H338.15207c-25.98053,0-31.20739-20.51414-31.98677-24.5755-.02413-6.85264-.22344-64.47762-.38522-134.25359H516.17071c-.16088,69.74246-.36109,127.34642-.38433,134.24644C514.9784,855.21329,509.71222,875.62018,483.79962,875.62018Z" fill="#737373"/>
      <path d="M770.48554,507.19491c-8.37632-79.56828-12.42216-83.61582-14.36715-85.56a7.79545,7.79545,0,0,0-5.50289-2.28129h-163.65a7.78756,7.78756,0,0,0-5.4995,2.28129c-1.945,1.94414-5.99422,5.99168-14.37054,85.56-7.49532,71.23092-1.74168,86.74,5.54694,106.37453.73868,1.995,1.50109,4.0467,2.26689,6.21363,7.91888,22.43766,71.11063,80.08332,86.50111,93.89731V874.27567H591.56027a7.78673,7.78673,0,0,0,0,15.57345H745.89535a7.78673,7.78673,0,0,0,0-15.57345H676.97706V712.96033c16.46462-14.80851,77.88759-71.05134,85.69465-93.17726.76579-2.16693,1.52481-4.21188,2.26689-6.20685C772.22722,593.94168,777.98425,578.43345,770.48554,507.19491Zm-16.04106,88.95182a79.79561,79.79561,0,0,1-8.37971,22.23181c.0305-.01355.07116-.02626.105-.03981-.11859.205-.35579.49472-.48116.70565a49.13662,49.13662,0,0,1-6.64142,9.24631c-15.41081,19.42446-46.89656,49.97754-70.25674,71.092-26.09468-23.58128-62.287-58.82739-74.78374-77.18109a1.69659,1.69659,0,0,1-.40323-.28548c-.61331-.9564-1.22324-2.09747-1.82639-3.2648a23.67393,23.67393,0,0,1-1.7654-3.63415c-.44728-1.26729-1.30795-2.83954-1.74845-4.04076.02372-.00593.0576-.01355.07793-.01948-2.15168-5.44021-3.96791-11.02188-5.10644-14.7814-.02372.00678-.061.01525-.08471.022-.18636-.643-.33885-1.36217-.51505-2.02547-.40662-1.391-.68447-2.37956-.68447-2.37956l.07116-.02456c-3.4427-14.51032-4.483-35.07839.55571-82.94321,5.03189-47.77756,8.42037-66.676,10.08411-73.89765h82.59419c.01356,0,.02033-.00763.03389-.00763h69.62986c1.66714,7.22932,5.05562,26.12772,10.08751,73.90528C760.56069,561.62829,758.75463,581.284,754.44448,596.14673Z" fill="#737373"/>
    </g>
  </g>
</svg>
